<svg width="23" height="21" viewBox="0 0 23 21" fill="none" xmlns="http://www.w3.org/2000/svg">
<path d="M11.5 21C11.1726 21 10.8569 20.8783 10.6109 20.6571C9.68172 19.8233 8.78591 19.0398 7.99557 18.3486L7.99153 18.345C5.67437 16.3185 3.67342 14.5685 2.28119 12.8445C0.724892 10.9173 0 9.08994 0 7.0937C0 5.1542 0.648033 3.36488 1.8246 2.05512C3.01521 0.729882 4.64889 0 6.42523 0C7.75288 0 8.96876 0.430762 10.039 1.28022C10.5791 1.709 11.0687 2.23377 11.5 2.84587C11.9315 2.23377 12.4209 1.709 12.9612 1.28022C14.0314 0.430762 15.2473 0 16.5749 0C18.3511 0 19.985 0.729882 21.1756 2.05512C22.3521 3.36488 23 5.1542 23 7.0937C23 9.08994 22.2753 10.9173 20.719 12.8443C19.3268 14.5685 17.326 16.3183 15.0092 18.3447C14.2174 19.0369 13.3202 19.8217 12.389 20.6575C12.1431 20.8783 11.8273 21 11.5 21V21ZM6.42523 1.38269C5.02967 1.38269 3.74764 1.95428 2.81499 2.99228C1.86847 4.04596 1.34713 5.50248 1.34713 7.0937C1.34713 8.77263 1.95515 10.2742 3.31843 11.9623C4.63608 13.594 6.59597 15.3081 8.86523 17.2928L8.86944 17.2964C9.66277 17.9903 10.5621 18.7769 11.4981 19.6168C12.4397 18.7752 13.3404 17.9874 14.1353 17.2924C16.4044 15.3077 18.3641 13.594 19.6817 11.9623C21.0448 10.2742 21.6529 8.77263 21.6529 7.0937C21.6529 5.50248 21.1315 4.04596 20.185 2.99228C19.2525 1.95428 17.9703 1.38269 16.5749 1.38269C15.5526 1.38269 14.614 1.7162 13.7852 2.37387C13.0466 2.96023 12.5322 3.70145 12.2305 4.2201C12.0754 4.4868 11.8023 4.646 11.5 4.646C11.1977 4.646 10.9246 4.4868 10.7695 4.2201C10.468 3.70145 9.95353 2.96023 9.21478 2.37387C8.386 1.7162 7.44738 1.38269 6.42523 1.38269V1.38269Z" fill="#1D1D20"/>
</svg>
